<?xml version="1.0" encoding="utf-8"?>
<!-- Generator: Adobe Illustrator 27.8.1, SVG Export Plug-In . SVG Version: 6.00 Build 0)  -->
<svg version="1.1" id="Layer_1" xmlns="http://www.w3.org/2000/svg" xmlns:xlink="http://www.w3.org/1999/xlink" x="0px" y="0px"
	 viewBox="0 0 1000 800" style="enable-background:new 0 0 1000 800;" xml:space="preserve">
<style type="text/css">
	.st0{fill:#DBEAFE;}
	.st1{fill:none;stroke:#000000;stroke-width:3.6798;stroke-miterlimit:10;}
	.st2{fill:#4F46E5;}
	.st3{fill:none;stroke:#DBEAFE;stroke-width:4.5191;stroke-miterlimit:10;}
	.st4{fill:none;stroke:#000000;stroke-width:3.6798;stroke-linecap:round;stroke-linejoin:round;stroke-miterlimit:10;}
	.st5{fill:#334155;}
	.st6{fill:none;stroke:#FFFFFF;stroke-width:3.6798;stroke-linecap:round;stroke-linejoin:round;stroke-miterlimit:10;}
</style>
<g>
	<circle class="st0" cx="831.5" cy="184.4" r="13.5"/>
	<circle class="st0" cx="868.7" cy="189.2" r="11"/>
	<path class="st0" d="M661.5,406.4c0,0-1.9-5.5,3.7-6.5s12.7-6.8,15.9,6.5s20.3,78.2,16.8,87.9s-19.8,26.1-20,22.6
		s-2.4-44.8-6.8-61.3S661.5,406.4,661.5,406.4z"/>
	<path class="st0" d="M639.6,343.5c0.6,0.5,2.9,11.5,11.5,12.7c8.5,1.1,15.3-2,9.6-13.2s-9.8-27.3-12.8-19.2
		c-3.1,8.1-10.7,10.4-10.7,10.4L639.6,343.5z"/>
	<path class="st0" d="M623.6,280.1c-0.1,0.1-0.1,0.1-0.2,0.2c-1,1.1-1.8,2.6-3.1,3.5c-3.5,2.5-10.7,2.9-14.2,1.6
		c-0.1-0.1-0.3-0.3-0.4-0.4c-1.5-1.6-3-3.3-4.6-5c-41-44.2-118.8-101.3-229.9-105v-7.3c0.4,0,0.9,0,1.4,0
		c86.2,0,180.9,46.3,244,105.6c1.8,1.7,3.6,3.4,5.4,5.1C622.5,278.9,623.1,279.5,623.6,280.1z"/>
	<path class="st1" d="M336.7,704.3c-2.6-1.6-5.2-3.3-7.7-5"/>
	<path class="st2" d="M938.4,634.3l-96.9,68.3c-0.1-0.1-0.2-0.1-0.4-0.2c-6.8-4.2-9.9-11-15.6-16.3c-5.4-5-12.5-8.8-20-8.8
		c-6.8,0-13.8,2.4-18.9,7c-4.7,4.3-7.7,10.1-12.3,14.5c-5.4,5-12.2,7.9-19.6,7.9c-10.4,0-19.6-5.4-24.7-13.6l-1.3-2.2
		c-5.2-8.2-14.3-13.6-24.8-13.6s-19.6,5.4-24.8,13.6l-1.3,2.2c-5.2,8.2-14.3,13.6-24.8,13.6c-7.4,0-14.2-2.9-19.6-7.9
		c-4.7-4.4-7.6-10.2-12.4-14.5c-5.1-4.6-12.1-7-18.9-7c-7.5,0-14.6,3.7-20,8.8c-5.7,5.3-8.8,12.1-15.6,16.3
		c-4.6,2.8-9.8,4.4-15.2,4.4s-10.6-1.6-15.2-4.4c-6.8-4.2-9.9-11-15.6-16.3c-5.4-5-12.5-8.8-20-8.8c-6.8,0-13.8,2.4-18.9,7
		c-4.7,4.3-7.7,10.1-12.3,14.5c-5.4,5-12.2,7.9-19.6,7.9c-10.4,0-19.6-5.4-24.8-13.6l-1.3-2.2c-5.2-8.2-14.3-13.6-24.8-13.6
		s-19.6,5.4-24.8,13.6l-1.3,2.2c-6.2,10.5-19.6,15.3-31.2,12.7c-14.2-3.2-17.9-17.5-29.5-24.2c-3.2-1.9-6.9-2.8-10.3-4.3
		c-10.7-4.7-17.8-14.6-26.3-22.2c8.3,7.5,16.5,14.9,24.8,22.4c-2.4-2.1-3.8-9-5.5-12c-2.4-4.4-5.2-8.7-8.4-12.7
		c-6.3-8-13.1-15.5-19.4-23.5c-14.4-18.2-28.9-36.3-43.3-54.6c-9.7-12.3-19.3-24.8-28.6-37.4c-6.7-9.1-22-25.2-12-36.9
		c2-2.3,5-3.6,8.1-4c13.5-1.8,29.3,2.6,42.8,4.3c31.2,3.8,62.3,7.9,93.5,11.7c41.7,5.2,83.5,10.3,125.2,16.4
		c2.4,0.3,4.7,0.7,7.1,1.1l2.5,0.4c1.2,0.2,2.2,0.4,2.8,0.5c0.4,0.1,0.6,0.1,0.8,0.1c0.1,0,0.1,0,0.1,0L932,606.5
		C945.6,608.8,949.6,626.3,938.4,634.3z"/>
	<path class="st1" d="M841.4,702.5l96.9-68.3c11.3-7.9,7.2-25.5-6.4-27.7l-756.3-123c-13.7-2.2-23.1,13.3-14.7,24.4L250,626.4
		c15.1,18.9,31.8,36,49.9,51.1l0,0"/>
	<path class="st3" d="M885.7,677.3c0,16.2-13.1,29.4-29.4,29.4c-5.4,0-10.7-1.6-15.2-4.4c-6.8-4.2-9.9-11-15.6-16.3
		c-5.4-5-12.5-8.8-20-8.8c-6.8,0-13.8,2.4-18.9,7c-4.7,4.3-7.7,10.1-12.4,14.5c-5.4,5-12.2,7.9-19.6,7.9c-10.4,0-19.6-5.4-24.8-13.6
		l-1.3-2.2c-5.2-8.2-14.3-13.6-24.8-13.6s-19.6,5.4-24.8,13.6l-1.3,2.2c-5.2,8.2-14.3,13.6-24.8,13.6c-7.4,0-14.2-2.9-19.6-7.9
		c-4.7-4.4-7.6-10.2-12.4-14.5c-5.1-4.6-12.1-7-18.9-7c-7.5,0-14.6,3.7-20,8.8c-5.7,5.3-8.8,12.1-15.6,16.3
		c-4.6,2.8-9.9,4.4-15.2,4.4s-10.7-1.6-15.2-4.4c-6.8-4.2-9.9-11-15.6-16.3c-5.4-5-12.5-8.8-20-8.8c-6.8,0-13.8,2.4-18.9,7
		c-4.7,4.3-7.7,10.1-12.4,14.5c-5.4,5-12.2,7.9-19.6,7.9c-10.4,0-19.6-5.4-24.8-13.6l-1.3-2.2c-5.2-8.2-14.3-13.6-24.8-13.6
		s-19.6,5.4-24.8,13.6l-1.3,2.2c-5.2,8.2-14.3,13.6-24.8,13.6c-7.4,0-14.2-2.9-19.6-7.9c-4.7-4.4-7.6-10.2-12.4-14.5
		c-5.1-4.6-12.1-7-18.9-7c-7.5,0-14.6,3.7-20,8.8c-5.7,5.3-8.8,12.1-15.6,16.3c-4.6,2.8-9.9,4.4-15.2,4.4
		c-16.3,0-29.4-13.2-29.4-29.4"/>
	<path class="st4" d="M679.6,400.5c7.7,29.7,13.1,60.3,19.2,89.9"/>
	<path class="st4" d="M50,706.7V488.8c0-177.4,143.8-321.2,321.2-321.2c86.2,0,180.9,46.3,244,105.6c1.8,1.7,3.6,3.4,5.4,5.1
		c0.6,0.6,1.1,1.1,1.7,1.7"/>
	<path class="st4" d="M646.6,313.7c5.3,9.6,10,19.6,14.1,29.3c0.3,0.7,0.6,1.4,0.9,2.2c1,2.4,2,4.8,2.9,7.3"/>
	<path class="st1" d="M677.3,93.3"/>
	<path class="st4" d="M602.2,264.2"/>
	<path class="st4" d="M935.8,287.5"/>
	<path class="st4" d="M814.3,255.4c0,0-12.7,23.6,17.7,25.6s50.2-22.2,50.2-22.2"/>
	<path class="st4" d="M701.9,405.8"/>
	<path class="st5" d="M756.9,454.5c4.6,1.9,9.2,3.9,13.9,5.6c-16.4-4.3-31.3-0.8-34.9,0.1c-1.9,0.5-17.9,7.2-20,6.9
		c0.3-7,3.1-31.9,5-36C729.1,435.1,750.5,451.8,756.9,454.5z"/>
	<path class="st5" d="M943.5,378.5l-9.4,25.5c0,0-23.2-53-75-32c0,0-12.3,30.8-51.1,22.9c-43.9-9-69.8-19.7-68.7-25.6
		c1.2-6.4,7.1-18.4,8.5-17.5c2-5.8,5.6-13.8,9.9-20.9c1.7-2.9,1.9,0,1.9-2c1.4-29.8-25.3-36-25.3-36c22.5-21.3,50.8-34.2,79.6-39
		l0,0c0,0-9.4,19.8,6.4,24.5c15.9,4.7,33.9,5.7,65.8-20.7C886.2,257.8,974.2,275.6,943.5,378.5z"/>
	<path class="st5" d="M922.2,425.1c-2.4,12.6-27.2,133.3-87.4,158.3c11.1-53.3-29.2-96.8-29.2-96.8c-7.2-11.7-16.1-18.9-25.3-23
		c39,13.1,81.8,17.3,116.3-10.5C906.6,445.1,915.1,435.6,922.2,425.1z"/>
	<path class="st1" d="M814.7,500.4c-9.7-16-21.8-33.3-43.9-39.7c-23.7-6.9-50.8-0.7-63.2,17c-10.1,14.5-19.5,29.3-29.5,43.9
		c-2.9,4.3-5.9,8.6-9,12.8c-3.9,5.4-7.8,10.8-11.7,16.2c-2.4,3.4-4.9,6.8-7.3,10.1"/>
	<path class="st1" d="M714.4,470.4c-6.9-3.9-14.2-7.3-21.6-10.1"/>
	<path class="st1" d="M490,534.7c15.5-11.7,31.1-23.3,46.3-35.4c25.9-20.4,51.2-42.6,85.3-47.6c16.5-2.4,33.2-1.5,49.3,2.1"/>
	<path class="st1" d="M922.5,423.9c0,0-29.4,161.9-108.6,163.9"/>
	<line class="st1" x1="784.8" y1="562.5" x2="772.6" y2="580.7"/>
	<path class="st1" d="M599.3,552.5c-0.4-0.1,5.7-3.6,13.2-7.8c14.7-8.3,33.1-5.9,45.1,5.9l0,0"/>
	<path class="st4" d="M636,334.6c1.9,4.2,5.3,11.6,7.2,16.2"/>
	<path class="st4" d="M678.2,521.6c-2.3-42.5-10.2-93.3-18.2-120.9"/>
	<path class="st4" d="M737.7,369.3c6.3-14.3,12.9-26.6,23.2-42.3"/>
	<path class="st4" d="M720.2,429.5c-2.9,15-5.1,28.2-6.5,38.9"/>
	<path class="st4" d="M826.4,252.4c-4.2,0.4-8.4,0.9-12.6,1.6c-28.8,4.9-57.1,17.8-79.6,39c-5.5,5.1-10.6,10.8-15.3,16.9
		c-5.4,6.9-10.4,19.3-20,20.9c-10.8,1.8-19.5-8.9-25.5-16.2c-9.6-11.8-19.3-23.4-28.3-35.6c-4.1-5.5-8-12.4-15.3-14.1
		c-5.9-1.4-12.5,2.9-17.1,6.1"/>
	<path class="st4" d="M637.9,301.1"/>
	<path class="st4" d="M642.4,318c3.8-1.3,4.7,3.2,4.7,3.2c0.6,3.8-1.3,7.4-4.3,9.8c-5,4-11.9,5.4-18.3,5.2c-3-0.1-6.9-0.7-8.8-3.3
		c-1.9-2.6-2-6.1-1.4-9.2"/>
	<path class="st4" d="M597.3,277.9c-3.8,2.3-6.9,5.9-7.8,10.5c-0.3,1.6-0.3,3.4,0.3,4.9c0.8,1.9,2.4,3.3,4.2,4.2
		c8.5,4.2,19.3,4.8,28.4,2.1c5-1.5,8.2-4.7,11.6-8.3c3.1-3.4,2.9-8.7-0.6-11.7c-2-1.7-4.7-2.4-7.2-1.8c-1,0.2-1.9,0.7-2.6,1.3
		c-0.6,0.4-1.1,0.8-1.6,1.3c-1,1.2-1.8,2.6-3.1,3.5c-4.3,3.1-14.6,3-15.9,0.3"/>
	<path class="st4" d="M636.1,286.6c2.5,0.9,4.9,2.6,6.2,5c4.2,7.8-4.7,15.3-11.1,17.8c-7.4,2.8-15.5,2.8-23.3,2
		c-3.7-0.4-8.1-0.3-10.8-3.2c-2.1-2.2-3.1-5.5-2.2-8.5c0.2-0.5,0.3-1,0.6-1.5"/>
	<path class="st4" d="M642.7,299.2c0,0,6.2,2.7,5.6,9.4c-0.7,7.7-8,11.6-14.7,13.4c-6,1.6-12.3,2.1-18.5,1.8
		c-1.6-0.1-3.3-0.2-4.9-0.7c-4.9-1.4-8.8-6.6-7.6-11.7c0-0.2,0.1-0.4,0.1-0.5"/>
	<path class="st4" d="M657.7,336.1c5-1.8,10.6-2.2,15.8-1.7c5.4,0.5,11.3,2.2,15.8,5.2c5,3.3,9.5,7.6,14.4,11.1
		c10.4,7.4,21.5,13.6,32.8,19.5c25.5,13.4,68,25.4,81.6,24.9c0.6,0,1.2,0,1.7-0.1c10-0.6,20-3.3,27.9-9.5
		c6.1-4.7,10.6-11.1,13.4-18.2c2.1-5.5,3.4-11.5,3.2-17.4c-0.1-1.9,0-5.8-1.8-7"/>
	<path class="st4" d="M661.6,345.2c5.3,0,5,6.6,1.2,8.7c-0.6,0.4-1.3,0.6-1.9,0.9c-0.2,0.1-0.4,0.1-0.6,0.2"/>
	<path class="st4" d="M882,257.8c3.3,0.9,6.6,1.9,9.9,3c0.4,0.1,0.7,0.2,1.1,0.4c16.4,5.5,33.3,14.1,43.4,28.7
		c10.3,14.8,13.8,33.1,13,50.9c-1.9,41.9-19.6,85.4-52.7,112.2c-19.4,15.6-43.7,21.9-68.3,20.5c-12.2-0.7-24.2-3-35.9-6.3
		c-12.6-3.5-25.2-7.7-36.9-13.5c-3.7-1.9-7.4-3.9-10.9-6c-11.9-7.3-22.7-16.3-33-25.6c-4.9-4.4-9.8-8.8-14.5-13.4
		c-4-3.9-8.2-7.9-13.5-9.7c-2.1-0.7-4.3-1-6.5-0.9c-6.8,0.3-13.3,3.1-20.3,2.2c-19.7-2.6-26.7-21.1-29.4-38.5
		c-0.7-4.7-1-11.2,3.9-13.9c1-0.5,1.9-0.9,2.8-1.2c3.3-1.1,6.8,0.4,8.6,3.4c2.6,5,8.3,7.4,13.8,6l3.8-1c0.2-0.1,0.4-0.1,0.6-0.2"/>
	<path class="st1" d="M604.7,285.4c-0.1-0.2-0.3-0.3-0.4-0.5c-1.5-1.6-3-3.3-4.6-5c-41-44.2-118.9-101.3-229.9-105v-7.4"/>
	<g>
		<path class="st2" d="M891.3,170.3L891.3,170.3c-1.2-5.9-3.7-11.6-8.4-15.9c-6.9-6.3-16.6-8.2-25.4-8.4c-7.2-0.2-13.9,2.8-18.8,7.7
			c-3.8-4.6-1.4-10.7-1.4-10.7c3-6.8,8-9.4,14-9.4c15.3,0.1,36.5,17.3,43.8,23.7c1.1,0.9,1.8,1.6,2.2,2
			C901.7,163.4,895.7,186.4,891.3,170.3z"/>
		<path class="st2" d="M851.3,133.6c5.5-4.5,15.5-9.4,28.7-2.9c14.8,7.4,15.8,19.9,15.1,26.5L851.3,133.6z"/>
	</g>
	<path class="st4" d="M860.8,235.1c0,0-38,11.1-34.5-36.1c0.6-8.3,2.1-18.3,4.8-30c0.2-1,0.5-2,0.7-3.1c1.1-4.7,3.5-8.9,6.8-12.2"/>
	<path class="st4" d="M891.2,170.3L891.2,170.3c2.5,12.9-1.4,26.2-1.7,27.1"/>
	<path class="st4" d="M889.5,197.4L889.5,197.4L889.5,197.4c4-5.3,12.5-0.4,9.7,5.5c-2.9,6.2-12,12.2-12,12.2l-5.7,44.6"/>
	<path d="M891.2,170.3c-4.5-16-25.4-9.3-42.3-11.8c-5.4-0.8-8.5-2.6-10.3-4.8c4.8-4.9,11.5-7.8,18.8-7.7c8.8,0.2,18.5,2.1,25.4,8.4
		C887.6,158.8,890.1,164.4,891.2,170.3z"/>
	<path class="st4" d="M891.2,170.3L891.2,170.3c-1.2-5.9-3.7-11.6-8.4-15.9c-6.9-6.3-16.6-8.2-25.4-8.4c-7.2-0.2-13.9,2.8-18.8,7.7
		c-3.8-4.6-1.4-10.7-1.4-10.7c3-6.8,8-9.4,14-9.4c15.3,0.1,36.5,17.3,43.8,23.7c1.1,0.9,1.8,1.6,2.2,2
		C901.6,163.4,895.6,186.4,891.2,170.3z"/>
	<path class="st4" d="M851.2,133.6c5.5-4.5,15.5-9.4,28.7-2.9c14.8,7.4,15.8,19.9,15.1,26.5"/>
	<circle class="st4" cx="868.7" cy="189.2" r="15.5"/>
	<circle class="st6" cx="831.5" cy="184.4" r="13.5"/>
	<circle class="st4" cx="831.5" cy="184.4" r="15.5"/>
	<polyline class="st4" points="853.5,186.6 846.9,185.7 843,204 849.8,204 	"/>
	<path d="M895.8,175.4c0,0,2.8,9.8-0.8,19.8c0,0-5.8,3.4-4.1-3.1s1-16.5,1-16.5L895.8,175.4z"/>
	<line class="st4" x1="834.9" y1="233.5" x2="825" y2="262.8"/>
	<path class="st1" d="M869.6,210.2c1.8-1.9,3.9,6.9,3.9,7.8c0.1,2.7-1.5,3.6-4,4.2c-6.8,1.6-13.9,0.3-19.9-3.2c-1-0.6-3-1.7-3-3
		c7.1,0.4,16.7-0.3,22.3-5.1C869.2,210.6,869.4,210.4,869.6,210.2z"/>
	<path class="st4" d="M862.8,188.6c0,0,3.9-0.7,7.1,1.9"/>
	<path class="st4" d="M834.5,184.5c0,0,3.9-0.7,7.1,1.9"/>
</g>
</svg>
