<?xml version="1.0" encoding="utf-8"?>
<!-- Generator: Adobe Illustrator 27.8.1, SVG Export Plug-In . SVG Version: 6.00 Build 0)  -->
<svg version="1.1" id="Layer_1" xmlns="http://www.w3.org/2000/svg" xmlns:xlink="http://www.w3.org/1999/xlink" x="0px" y="0px"
	 viewBox="0 0 1000 1000" style="enable-background:new 0 0 1000 1000;" xml:space="preserve">
<style type="text/css">
	.st0{fill:#FFFFFF;}
	.st1{fill:none;stroke:#1E293B;stroke-width:4.2128;stroke-miterlimit:10;}
	.st2{fill:#94A3B8;}
	.st3{fill:#334155;}
	.st4{fill:#4F46E5;}
	.st5{fill:none;stroke:#000000;stroke-width:4.2128;stroke-miterlimit:10;}
	.st6{fill:#3FBDF1;}
	.st7{fill:none;stroke:#000000;stroke-width:4.2128;stroke-miterlimit:9.9999;}
	.st8{fill:#1E293B;}
</style>
<g id="Layer_2_00000008855437637167015840000013271633536129281721_">
	<polyline class="st0" points="550,177.7 544.8,170.2 542.3,141.1 549,117 545,109 529,72 532,56 511.1,49.4 492,52 474.9,61.6 
		463.4,75.1 456.7,89.6 454.2,100.8 461,106 464,108 464,111.4 455.9,113.2 453,124.4 457,134 463,138 469.8,137.4 477.3,150.1 
		491.6,163.4 494.7,166.3 493.4,171.4 489,188 491,197 495,210 514,215 530,209 545,191 550,177.7 	"/>
</g>
<g>
	<line class="st1" x1="292.2" y1="559.7" x2="142.1" y2="454.8"/>
	<line class="st1" x1="283.7" y1="588.6" x2="142.1" y2="489.6"/>
	<polygon class="st2" points="245,907 287.9,687.7 285.4,665.8 281.8,628.9 282.8,596.9 289.6,561 300,534 318.4,510.5 336,497 
		356,486 363,481.4 400,464 547,466 643.4,479.9 639.2,500.9 628,528 614.3,550.7 595,572 574,591 542,608 469,639 448.2,644.9 
		426,662 415,672 409.2,680.4 380,748 378,799 376.1,838.1 342,871 320,884 249,919 243,913 	"/>
	<polygon class="st0" points="390.8,305.9 387.7,334.4 383.8,366.9 374.3,390.4 364.6,406.1 357.5,403.4 350,404 346,408 347,419 
		350,423 359.1,427.2 359,430 349,432 326,428 318,426 311.5,432 309.8,448.4 314.3,462.2 321.8,471.3 335.7,477.5 371.2,482.6 
		406.1,482.6 456.6,478.9 520.5,468.2 551,460 580.3,441.8 605,421 626.9,390.3 638.1,358.5 623.5,291.5 509,301 402,301 	"/>
	<path class="st3" d="M643.1,481.3c-67.2,40-149.1-7.1-145.3-7.9C624.8,445.7,636,365.6,636,365.6c-25.3-61.9-94.4-42-94.4-42
		c-2,87.9-106.6,92.8-106.6,92.8c-6.7-28.5-6.3-95.1-6.3-95.1c-31.7-22.2-38.1-12.8-38.1-12.8c10-88,50.3-116.4,50.3-116.4
		c6.7-6.3,36.7-20.3,52.1-22.1l0.6,2.4c0,0-15.6,38.9,14.3,41.5c25.1,2.2,39.4-28.7,43.3-38.5c32.7,10.1,63.8,32.8,84.5,70.9
		C684.5,336.5,643.1,481.3,643.1,481.3z"/>
	<path class="st1" d="M650.3,443.4L650.3,443.4l163.2,108c31.7,20.9,27.6,68.6-7.1,83.9l-191,84.1c-36.1,15.9-77.9,11.8-110.3-10.8
		l-73.4-51.3"/>
	<path class="st1" d="M650.3,478.2l-5.5-3.6l168.7,111.6c31.7,20.9,27.6,68.6-7.1,83.9l-191,84.1c-36.1,15.9-77.9,11.8-110.3-10.8
		L411.9,677"/>
	<path class="st4" d="M792.4,629.3l-175.6,77.3c-33.2,14.6-71.6,10.8-101.3-9.9l-67.3-47.3c9.1-7,19.5-12.6,30.7-16.3
		c30.3-10.1,58.1-22.4,80.9-33.8c40.3-19.9,69.6-56.8,79.9-100.5c3.5-14.9,6.6-30.1,9.1-45.3l154.6,102.1
		C832.5,574.9,824.2,615.3,792.4,629.3z"/>
	<path class="st4" d="M340,853.2c0,0,30.8-12.8,36.7-22.4c0,0,1.1,21.8-4.6,29.3c-5.8,7.5-40.2,27.2-42.1,24.7
		C328,882.4,340,853.2,340,853.2z"/>
	<path class="st4" d="M245.3,905.3c0,0,5.6,7.6,25.5,0s63.1-35.6,63.1-35.6s-12.1,32.4-16.4,35.9c-4.4,3.6-86.9,44-86.9,44
		s-36.9,5.2-23-21L245.3,905.3z"/>
	<path class="st5" d="M364.1,482.2c-45.5,17.7-93.7,59.3-79.8,174.6l3.9,29.9"/>
	<path class="st5" d="M364,406.9c7.4-10.6,14.2-22.1,18.3-34.5c4.2-12.5,4.3-25.8,5.5-38.8c3.1-34.9,7.8-63.7,21.2-96.2
		c11.6-28.1,46.8-64.3,81.8-67.7c1-0.1,2.1-0.2,3.1-0.3"/>
	<path class="st5" d="M452,479.6c-0.2-0.5-0.3-0.9-0.5-1.4"/>
	<path class="st5" d="M434.9,414.3c-1.7-10.1-3-19.9-4-29.2c0-0.2,0-0.4-0.1-0.5c-5.2-51.9,0.1-89.7,0.1-89.7"/>
	<path class="st4" d="M557.2,99.1l-8,3.1c0,0.2,0,3.4-0.3,7.7c-0.4,4.4-1,10.2-2.5,15.5c0.7-3.5,1.7-11.7-2.8-17.4
		c-0.1-0.1-0.2-0.2-0.2-0.3c-3-3.6-6.7-2.2-9.7,0.3c-2.8,2.3-5,5.4-5.3,6.1c0.7-7.5-1.2-14.2-3.5-19.5l0,0
		c-3.1-7.1-7.2-11.5-7.2-11.5c4.5,15.6-1.3,25.8-1.3,25.8c-15.3,3.6-26,2.8-33.9,1.5c-6.7-6.2-4.4-28.7-4.4-28.7
		c-6.7,5.5-5.1,26.8-5.1,26.8c-1.5-8.9,0.3-16.7,0.3-16.7c-5.5,7.9-5.6,15.7-5.6,16.1l-0.1-0.1c-0.5-0.1-0.9-0.2-1.4-0.4
		c-0.8-0.4-1.6-0.9-2.4-1.4l-4.4-3c6.7-34.1,30.1-55.6,66.2-49.3c2.5,0.4,4.8,1,6.9,1.8C556.4,67.8,557.2,99.1,557.2,99.1z"/>
	<path class="st6" d="M351,431.5l-9.1-27.4c-0.5-1.4-1.5-2.3-2.8-2.6c-0.1,0-0.2,0-0.3-0.1c-0.1,0-0.1,0-0.2,0
		c-0.2,0-0.4-0.1-0.6-0.1c-0.9,0-1.9,0.3-2.7,1.1c-1.5,1.4-2.3,3.4-2.3,5.4c0,0.8,0.1,1.5,0.4,2.3c2,5.8,5.6,16.2,7.2,21"/>
	<path class="st4" d="M348.9,431.5l-9.8-30c-0.1,0-0.2,0-0.3-0.1c-0.1,0-0.1,0-0.2,0c-1.7-0.3-3.4-0.7-5.2-1
		c-2.7-0.5-5.5-1.1-8.2-1.6c-3.3-0.7-6.6-1.2-9.9-2c-0.8-0.2-1.5-0.4-2.4-0.4c-1,0-1.9,0.3-2.7,1.1c-1.5,1.4-2.3,3.4-2.3,5.4
		c0,0.7,0.1,1.5,0.4,2.3c2.2,6.5,6.4,18.7,7.8,22.5L348.9,431.5z"/>
	<path class="st5" d="M543.1,294.9c-1,11.1-1.5,24.6-1.9,41.5c0,36-39.8,65.8-75.2,72.6l-64.9,14.7c-8.6,1.7-16.2-3.7-22.1-7.2
		c-6.1-3.6-12.4-8-16.8-11.2c-6.4-4.6-18.6-0.9-16.1,10.2c1,4.3,4.2,7.7,8.2,9.5c1,0.5,2.2,0.9,3.5,1.3c2,0.6,2,3.3,0.1,4
		c-5.6,1.9-15.9,3.1-32.5-3c-21.3-7.8-22.9,40.7,6.2,49.2h0.1c26.8,8.1,55.6,7.1,83.3,5.9c31.4-1.3,62.8-4.9,93.5-11.4
		c15.7-3.3,31.8-6.8,46.1-13.9c24.7-12.2,42.5-26.2,59.4-48c19-24.4,27.1-56.5,31.7-86.5c5.2-34.4-2-63.4-20.4-93
		c-0.2-0.4-0.5-0.7-0.7-1.1"/>
	<path class="st5" d="M351,431.5l-9.1-27.4c-0.5-1.4-1.5-2.3-2.8-2.6c-0.1,0-0.2,0-0.3-0.1c-0.1,0-0.1,0-0.2,0
		c-0.2,0-0.4-0.1-0.6-0.1c-0.9,0-1.9,0.3-2.7,1.1c-1.5,1.4-2.3,3.4-2.3,5.4c0,0.8,0.1,1.5,0.4,2.3c2,5.8,5.6,16.2,7.2,21"/>
	<path class="st5" d="M339.1,401.5c-0.1,0-0.2,0-0.3-0.1c-0.1,0-0.1,0-0.2,0c-1.7-0.3-3.4-0.7-5.2-1c-2.7-0.5-5.5-1.1-8.2-1.6
		c-3.3-0.7-6.6-1.2-9.9-2c-0.8-0.2-1.5-0.4-2.4-0.4c-1,0-1.9,0.3-2.7,1.1c-1.5,1.4-2.3,3.4-2.3,5.4c0,0.7,0.1,1.5,0.4,2.3
		c2.2,6.5,6.4,18.7,7.8,22.5"/>
	<path class="st5" d="M464.7,106.8c0,13,2.5,25.4,8.8,36.9c5,9.2,12.3,18.5,22.8,21.6c2.3,0.7,4.7,1,7.2,1
		c17.8-0.1,20.6-21.2,20.6-21.2"/>
	<path class="st5" d="M548.3,114.4L548.3,114.4c-0.9,6.7-2.3,13.1-4.2,19c-2.4,7.4-2.9,15.2-1.6,22.9l2.8,16.1
		c0.3,1.5,1.3,2.6,2.8,3.1c35.2,10.2,66.4,32.7,84.5,65.3c22.7,40.6,26.8,89.5,24.9,135.1c-1.6,39.5-8,78.8-17.1,117.3
		c-11.2,47.6-43.1,87.7-86.9,109.4c-24.9,12.3-55.1,25.7-88.1,36.7c-32.3,10.8-58.2,35.3-70.2,67.2L324.3,895
		c-2.6,6.9-7.7,12.7-14.4,16L242,945.1c-5.9,3-12.3,4.5-18.8,4.5c-3,0-5.9-0.3-8.9-0.9c-11-2.3-13.4-17-3.7-22.7l34.7-20.6
		L293,662.3c6.8-44,32.5-82.7,70.2-106c2.5-1.5,5.1-2.8,7.8-4l103.4-44.9"/>
	<path class="st5" d="M519.9,51.2L519.9,51.2c-4.9-1.2-10.5-1.6-16.8-0.9c-0.2,0-0.5,0-0.7,0.1"/>
	<path class="st5" d="M494.8,170.2c0,0-18.3,41.9,14.4,44c29.4,1.9,40.1-38,40.1-38"/>
	<path class="st5" d="M546,127c0.2-0.8,3.4-12.1-2.7-19.3c-5.9-7-14.2,5.1-15,6.4c1.6-17.6-10.7-31-10.7-31
		c4.5,15.6-1.3,25.8-1.3,25.8c-22.4,5.2-34.7,1.3-43.4-0.5c-1.5-8.9,0.3-16.7,0.3-16.7c-5.6,8.1-5.6,16.1-5.6,16.1h-0.1
		c-3.3-0.9-6.5-2.3-9.3-4.2l-4.4-3c6.7-34.1,30.1-55.6,66.2-49.3s37.2,47.9,37.2,47.9l-8,3.1C549.2,102.3,549.2,115.9,546,127z"/>
	<path class="st5" d="M478.7,125.2v16.6c0,0.9,0.8,1.5,1.7,1.2c0.9-0.3,2.2-0.9,3.5-2.1"/>
	
		<ellipse transform="matrix(0.9317 -0.3632 0.3632 0.9317 -13.6375 176.9027)" class="st7" cx="463.6" cy="124.7" rx="10.2" ry="14.1"/>
	
		<ellipse transform="matrix(0.9317 -0.3632 0.3632 0.9317 -13.1952 188.659)" class="st7" cx="495.1" cy="129.4" rx="10.2" ry="14.1"/>
	<path class="st5" d="M474.3,126.1c0,0,3.1-3.5,9.6,0.6"/>
	<path class="st5" d="M493.4,164.3c0,0,2.3,7.6,8.9,32.3"/>
	<path class="st5" d="M327.6,886.1l39-21.1c4.5-2.5,7.6-7,8.1-12.1c6.5-63.7,4.5-103.9,4.5-103.9"/>
	<g>
		<path class="st8" d="M857.9,389.2v85.9c0,8-4.7,15.3-12.1,18.6l-106.5,47.2l-32.6,49.5c-3.8,5.8-12.8,3.1-12.8-3.8V561l-10.9,4.8
			c-10.5,4.7-22.4-3.1-22.4-14.6v-71.7c0-18.3,10.9-34.8,27.6-42.1l146.4-63.5C845.6,369.2,857.9,377.2,857.9,389.2z"/>
		
			<ellipse transform="matrix(0.4601 -0.8879 0.8879 0.4601 -53.5251 901.5237)" class="st0" cx="714.5" cy="494.8" rx="20.6" ry="14.3"/>
		
			<ellipse transform="matrix(0.4601 -0.8879 0.8879 0.4601 -11.6645 931.3564)" class="st0" cx="760" cy="475.3" rx="20.6" ry="14.3"/>
		
			<ellipse transform="matrix(0.4601 -0.8879 0.8879 0.4601 30.6772 959.0522)" class="st0" cx="803.9" cy="454.3" rx="20.6" ry="14.3"/>
	</g>
</g>
</svg>
