<?xml version="1.0" encoding="utf-8"?>
<!-- Generator: Adobe Illustrator 27.8.1, SVG Export Plug-In . SVG Version: 6.00 Build 0)  -->
<svg version="1.1" id="Layer_1" xmlns="http://www.w3.org/2000/svg" xmlns:xlink="http://www.w3.org/1999/xlink" x="0px" y="0px"
	 viewBox="0 0 1000 1000" style="enable-background:new 0 0 1000 1000;" xml:space="preserve">
<style type="text/css">
	.st0{fill:none;stroke:#DBEAFE;stroke-width:4.5191;stroke-miterlimit:10;}
	.st1{fill:#4F46E5;}
	.st2{fill:none;stroke:#000000;stroke-width:5.1386;stroke-miterlimit:10;}
	.st3{fill:#C7D2FE;}
	.st4{fill:#D7E8F0;}
	.st5{fill:#FFFFFF;}
	.st6{opacity:0.72;}
	.st7{fill:#3FBDF1;}
	.st8{fill:#2E2E2E;}
	.st9{fill:#334155;}
	.st10{fill:none;}
	.st11{fill:none;stroke:#000000;stroke-width:5.1385;stroke-miterlimit:9.9998;}
</style>
<g>
	<path class="st0" d="M531,159.4c0,0,125-69.2,190.1,18.3S688.8,333.5,774.3,385s19.5,150.3,97,183.1s54.5,174.6-36.4,207.3"/>
	<path class="st0" d="M174.2,675c-0.2,1-0.4,1.9-0.6,2.9c-0.4,2.1-0.8,4.1-1.1,6.3c-6,44.2,13.4,88.6,40.6,122.5"/>
	<g>
		<g>
			<path class="st1" d="M608.8,695.1h-380c-46.6,0-84.4-37.8-84.4-84.4V253c0-46.6,37.8-84.4,84.4-84.4h380
				c46.6,0,84.4,37.8,84.4,84.4v357.7C693.1,657.3,655.4,695.1,608.8,695.1z"/>
			<path class="st2" d="M603.2,695.1H226.3c-49.7,0-90-40.3-90-90V250.9c0-49.7,40.3-90,90-90h376.8c49.7,0,90,40.3,90,90v354.2
				C693.1,654.8,652.9,695.1,603.2,695.1z"/>
			<path class="st1" d="M598,684.7H239.6c-46.6,0-84.4-37.8-84.4-84.4v-337c0-46.6,37.8-84.4,84.4-84.4H598
				c46.6,0,84.4,37.8,84.4,84.4v337C682.4,646.9,644.6,684.7,598,684.7z"/>
			<path class="st3" d="M620.1,205.5H509.7c-15,0-27.2,13.1-27.2,29.2v294.9c0,16.2,12.2,29.3,27.2,29.3h110.4
				c15,0,27.2-13.1,27.2-29.3V234.7C647.3,218.6,635.1,205.5,620.1,205.5z M634.5,521.3c0,13.5-10.1,24.4-22.7,24.4H518
				c-12.5,0-22.7-10.9-22.7-24.4V243c0-13.5,10.1-24.4,22.7-24.4h93.8c12.5,0,22.7,10.9,22.7,24.4V521.3z"/>
			<g>
				<path class="st1" d="M371.2,577.7l-161.8-2.4c-3.6,0-6.5-3-6.5-6.7c0-0.6,0.1-1.2,0.3-1.8c0.8-2.7,3.4-4.7,6.4-4.7l161.8,2.4
					c-1.2,1.8-1.9,4-2,6.3C369.4,573.4,370,575.7,371.2,577.7z"/>
				<path class="st4" d="M410.5,573.5c-0.8,2.7-3.4,4.8-6.4,4.7l-11.7-0.2c1.1-1.8,1.9-4,2-6.3c0.1-2.5-0.6-4.8-1.8-6.8l11.7,0.2
					c3.6,0,6.5,3.1,6.5,6.7C410.7,572.3,410.6,572.9,410.5,573.5z"/>
				<path class="st4" d="M410.1,599.5c-0.8,2.7-3.4,4.7-6.4,4.7l-160.8-2.4c1.7-2,2.8-4.7,2.9-7.5c0.1-2-0.3-3.9-1.1-5.6l159.2,2.3
					c3.6,0.1,6.5,3.1,6.5,6.7C410.3,598.3,410.2,599,410.1,599.5z"/>
				<path class="st1" d="M223.6,601.6l-14.5-0.2c-3.6,0-6.5-3-6.5-6.6c0-0.6,0.1-1.2,0.3-1.8c0.8-2.7,3.4-4.7,6.4-4.7l12.9,0.2
					c-0.7,1.5-1.2,3.2-1.2,5C220.8,596.5,221.8,599.3,223.6,601.6z"/>
				<path class="st1" d="M359.8,629.9l-150.1-2.2c-3.6-0.1-6.5-3.1-6.5-6.7c0-0.6,0.1-1.2,0.3-1.7c0.8-2.7,3.4-4.8,6.4-4.7
					l149.9,2.2c-1.1,1.8-1.8,3.9-1.9,6.1C357.9,625.5,358.5,627.9,359.8,629.9z"/>
				<path class="st4" d="M410.7,625.9c-0.8,2.8-3.4,4.8-6.4,4.7l-23.5-0.4l-21-0.3c-1.3-2-1.9-4.4-1.9-7c0.1-2.3,0.7-4.3,1.9-6.1
					l21.4,0.3l23.4,0.3c3.6,0,6.5,3,6.5,6.6C411,624.7,410.9,625.3,410.7,625.9z"/>
				<g>
					<path class="st5" d="M392.4,578c-2.3,3.6-6.4,5.9-10.9,5.7c-4.4-0.2-8.1-2.5-10.2-6c-1.2-2-1.8-4.3-1.8-6.8
						c0.1-2.3,0.8-4.5,2-6.3c2.3-3.6,6.3-5.9,10.9-5.7c4.4,0.1,8.1,2.5,10.2,6c1.2,2,1.8,4.3,1.8,6.8
						C394.3,574,393.5,576.2,392.4,578z"/>
					<g class="st6">
						<path class="st5" d="M387.7,570.4c-0.2,1.5-1.1,2.9-2,4c-0.5,0.6-1.1,1.1-1.7,1.5c-0.3,0.2-2,1.6-2.4,1.4
							c-2.2-1.1-5.1-4-5.4-6.8c-0.1-0.4,0-0.9,0-1.3c0.3-1.6,1.6-2.7,3.2-2.7c1,0.1,2,0.6,2.5,1.4c0.6-0.8,1.6-1.2,2.6-1.2
							C386.5,566.9,387.9,568.6,387.7,570.4z"/>
					</g>
				</g>
				<g>
					<path class="st5" d="M242.9,601.9c-2.4,2.8-6,4.6-10,4.5c-3.8-0.1-7.2-2-9.3-4.8c-1.8-2.2-2.8-5.1-2.7-8.1
						c0.1-1.8,0.5-3.5,1.2-5l0,0c2.1-4.3,6.6-7.1,11.6-7c4.9,0.2,9,3.1,10.9,7.3c0.8,1.7,1.2,3.6,1.1,5.6
						C245.7,597.2,244.7,599.8,242.9,601.9z"/>
					<g class="st6">
						<path class="st5" d="M239.2,593c-0.2,1.5-1.1,2.9-2,4c-0.5,0.6-1.1,1.1-1.7,1.5c-0.3,0.2-2,1.6-2.4,1.4
							c-2.2-1.1-5.1-4-5.4-6.8c-0.1-0.4,0-0.9,0-1.3c0.3-1.6,1.6-2.7,3.2-2.7c1,0.1,2,0.6,2.5,1.4c0.6-0.8,1.6-1.2,2.6-1.2
							C237.9,589.5,239.4,591.1,239.2,593z"/>
					</g>
				</g>
				<g>
					<path class="st5" d="M380.8,630.2c-2.3,3.5-6.3,5.8-10.8,5.6c-4.3-0.2-8-2.5-10.1-5.9c-1.3-2-1.9-4.4-1.9-7
						c0.1-2.3,0.7-4.3,1.9-6.1c2.3-3.7,6.4-6,11-5.9c4.4,0.1,8.2,2.6,10.3,6.2c1.2,2,1.8,4.3,1.7,6.7
						C382.7,626.2,382,628.4,380.8,630.2z"/>
					<g class="st6">
						<path class="st5" d="M376.2,622.5c-0.2,1.5-1.1,2.9-2,4c-0.5,0.6-1.1,1.1-1.7,1.5c-0.3,0.2-2,1.6-2.4,1.4
							c-2.2-1.1-5.1-4-5.4-6.8c-0.1-0.4,0-0.9,0-1.3c0.3-1.6,1.6-2.7,3.2-2.7c1,0.1,2,0.6,2.5,1.4c0.6-0.8,1.6-1.2,2.6-1.2
							C374.9,618.9,376.4,620.6,376.2,622.5z"/>
					</g>
				</g>
			</g>
			<g>
				<path class="st5" d="M201.8,236.5l0.3,38.3c0.1,13.9,11.4,25.4,25.1,25.6l38,0.7c13.7,0.2,24.8-10.9,24.7-24.7l-0.3-38.3
					c-0.1-13.9-11.4-25.4-25.1-25.6l-38-0.7C212.8,211.5,201.7,222.6,201.8,236.5z"/>
				<path class="st1" d="M207.6,246.1l0.2,27.8c0.1,12,9.9,22,21.8,22.3l33,0.6c11.9,0.2,21.6-9.5,21.5-21.5v-1.9
					c-4.6-9.5-13.7-23.6-23.3-15.2c-13.9,12.2-20.2,2.9-28.3-9C225.7,239.1,215.5,231.8,207.6,246.1z"/>
				
					<ellipse transform="matrix(0.833 -0.5533 0.5533 0.833 -85.5792 185.4974)" class="st1" cx="264.5" cy="234.5" rx="9.1" ry="9.3"/>
			</g>
			<path class="st5" d="M412.4,288.1c-15.9,0-28.7,12.9-28.7,28.7c0,9,4.1,17,10.6,22.3L329,456.3c-0.5-0.1-0.9-0.1-1.4-0.1
				c-1.2,0-2.4,0.2-3.5,0.6L275,395.9c2.2-3.1,3.5-6.8,3.5-10.9c0-10.4-8.4-18.7-18.7-18.7c-10.4,0-18.7,8.4-18.7,18.7
				c0,6.4,3.2,12,8,15.4L214.8,498c-6.8,0.4-12.2,6-12.2,12.9c0,7.1,5.8,12.9,12.9,12.9c7.1,0,12.9-5.8,12.9-12.9
				c0-3.8-1.7-7.2-4.3-9.6l34.3-97.6c0.4,0,0.8,0.1,1.3,0.1c2.6,0,5.1-0.5,7.4-1.5l48.9,60.8c-1,1.8-1.6,3.9-1.6,6.1
				c0,7.1,5.8,12.9,12.9,12.9s12.9-5.8,12.9-12.9c0-3-1.1-5.7-2.8-7.9L403,344c2.9,1,6.1,1.6,9.4,1.6c15.9,0,28.7-12.9,28.7-28.7
				S428.3,288.1,412.4,288.1z"/>
		</g>
		<g>
			<path class="st5" d="M855.7,616.5c-0.1-0.3-0.1-0.6-0.2-0.9c-4-13.8-11.9-23.8-19.1-29.6c-0.1-0.1-0.2-0.2-0.3-0.2
				c-0.9-0.6-1.7-1.2-2.6-1.8c-1.2-0.8-2.4-1.5-3.7-2.2c-0.1-0.1-0.2-0.1-0.3-0.2c-3.8-1.7-8.7-4.5-13.5-8.1c-0.1,0-0.1-0.1-0.2-0.1
				c-5.7-3.8-10.9-8.2-14.5-14.4c-0.1-0.1-0.2-0.3-0.2-0.4c-0.1,0-0.1-0.1-0.1-0.1c-3.3-5-5.3-10.5-4.9-16.2v-0.2
				c-1-9.3,0-19-0.4-28.5c0-0.6,0-1.2-0.1-1.7c0-0.7-0.1-1.3-0.1-1.9c0-0.2,0-0.4,0-0.6c-0.1-1.9-0.4-3.7-0.7-5.5
				c-3.3-17.6-14.6-33.3-28.4-44.4c-0.3-0.3-0.7-0.5-1-0.7c-15.5-11.4-32.5-15.8-43.6-17.5c-0.1,0-0.2,0-0.3,0
				c-4.2-0.3-8.2-0.2-11.8-1.1c-0.1,0-0.1,0-0.2,0c-3.8-0.8-7.2-2.5-10.3-6.4c-1-1.2-1.8-2.5-2.5-3.9c-0.1-0.1-0.2-0.2-0.2-0.3
				c-2.8-4.2-4.6-9.1-5.6-14.8c-0.1-0.5-0.2-1-0.3-1.5c-2.4-11.4-2.5-23.8-2.5-34.1c-0.9-15.8-7.9-36.1-20.1-50.6c0,0,0-0.1-0.1-0.1
				c-3.6-3.5-7.5-6.6-11.9-9.1c-10.5-6.1-23.6-8.7-36-7.5c0,0,0,0-0.1,0h-0.1c-7.7,0.7-15.2,3-21.8,6.9c-2.5,1.4-4.8,3.1-6.9,4.9
				c-13,11.2-20.5,28.6-22.5,45.8c-0.2,1.3-0.3,2.6-0.3,4c0,0.2-0.1,0.3,0,0.5l0,0c-1.6,2.1-2.6,4.7-2.8,7.6
				c-0.4,6.3,3.2,12.1,8.7,14.7v0.3c0,0.9,0,1.8,0,2.7c0.2,6,1.5,12.1,3.9,17.7c4,9.5,11.1,20.2,23.2,22c2.3,0.3,4.4,0.5,6.5,0.6
				l5.7,24.5l4.9,21.2c21.4-12.2,47.8-15.8,70.4-8.7c0,0,0,0,0.1,0c10.4,3.3,20,8.8,27.9,16.9c25.1,20.5,53.3,117.8,55,123.8
				c0,0.1,0,0.1,0.1,0.2c0,0,0,0,0,0.1s0,0.1,0.1,0.2c0.1,0.3,0.2,0.5,0.3,0.8s0.2,0.6,0.3,0.9c0.2,0.6,0.5,1.2,0.7,1.8
				c5,12.9,21.1,55,24.7,65.4c4.3,12.3,7.6,13.2,7.6,13.2c0.2,0,0.3-0.1,0.5-0.2c0.2-0.1,0.4-0.2,0.7-0.3c4-1.6,17.6-7.5,29.7-18.1
				l0,0c0.1,0,0.1,0,0.1-0.1c7.9-7.9,13.7-17.8,17.3-29.9C857.3,639.8,858.1,627.7,855.7,616.5z"/>
		</g>
		<path class="st1" d="M579.4,365.6c0,0,2.6-43.7,43.4-54c40.8-10.2,65.2,37.2,67,67.6s0,51.4,21.5,61c0,0,62-0.8,84.8,56.2
			c0,0,3.1,27.9,1.8,45.9s21.2,33.7,33.4,39.3c12.2,5.5,33.4,28.1,27.7,64.9c-5.8,36.8-51.5,53.2-51.5,53.2s-3.4-1-7.7-13.2
			c-4.3-12.3-26.2-69.2-26.2-69.2s-29.2-103-55.1-124.1c-14.3-11.6-29.6-16.9-39.6-23c-10.6-6.5-15.7-13.6-19.3-18.1
			c-6.9-8.9-19.2-22.3-10.3-54s-0.1-15.7-8.4-20.2c0,0-10.3-16-25.9-4.7S603.2,357,603.2,357l-6.9,9.2
			C596.4,366.3,585.6,368.4,579.4,365.6z"/>
		<path class="st7" d="M477.4,425.2c0.4-0.6,1-1.3,1.5-1.9s1.1-1.3,1.6-1.9c1.7-1.8,3.6-3.6,5.8-5.3c0.7-0.5,1.3-1,2-1.5
			L477.4,425.2z"/>
		<path class="st1" d="M168.9,866.4H137c-4.9,0-9.9,0-14.5-2c-4.5-2-7.9-5.6-11.3-9.1c-23.1-24.4-38.2-42.2-61.3-66.6l7.7-7.9
			c8.8-7.4,21.7-7,30,0.9l32.7,32.1l0,0L168.9,866.4z"/>
		<path class="st5" d="M620.4,736.9c-15.9,3.4-31.9,6.7-47.9,9.8c-18.9,3.7-37.8,7.3-56.8,10.8l-17.6-21.6l-29,30.1
			c-52,9.3-104.2,18.1-156.4,26.2l0.2-0.2l136.6-137.8c19-19.2,47.2-26.1,73-18l53.8,17.2C585.1,683.7,600.3,712.7,620.4,736.9z"/>
		<g>
			<path class="st8" d="M580.4,546.6c-6.7,23.4-8.3,48.2-5.6,73.1c0.7,6.4,1.7,12.7,3,19c1.2,6.3,2.8,12.5,4.6,18.7
				c8,27.5,21.1,54,38.2,77c-0.7,0.1-1.3,0.3-1.9,0.4c-19.3-23.8-33.9-52-42.5-81.5c-1.7-6-3.2-12-4.4-18
				c-1.2-6.1-2.2-12.2-2.9-18.3c-2.7-23.9-1.1-47.9,5.4-70.4c4.8-16.6,13.4-31.8,25.1-44.5c2.9-3.2,6.1-6.1,9.5-8.7l0.2-0.1l0,0
				l0.5-0.4l0.2-0.2c3.2-2.4,6.6-4.7,10.1-6.6c7.7-4.4,16-7.6,24.6-9.7c-5.8,2-11.4,4.5-16.8,7.5c-3.6,2.1-7.2,4.4-10.5,6.9L617,491
				l-0.5,0.4h-0.1l-0.2,0.1c-3.5,2.7-6.9,5.8-9.9,9.1C594.3,513.7,585.4,529.5,580.4,546.6z"/>
			<path class="st9" d="M689.6,659.7c0,0,27.8,35.4,51,77.6c-27.7-11.2-83.8-7-106.3-4.7c-3.3,0.1-6.3,0.5-8.9,1
				c-0.2,0-0.4,0-0.5,0.1c-0.1,0-0.2,0-0.2,0c-1.4,0.3-2.8,0.5-4,0.8c-17.1-23-30.2-49.5-38.2-77c-1.8-6.2-3.4-12.4-4.6-18.7
				c-1.3-6.3-2.3-12.6-3-19c-2.8-24.8-1.2-49.7,5.6-73.1c5-17.2,13.9-33,26.1-46.1c3-3.3,6.4-6.3,9.9-9.1l0.2-0.1h0.1l0.5-0.4
				l0.2-0.2c3.3-2.5,6.9-4.9,10.5-6.9c5.3-3,11-5.5,16.8-7.5c15.3-3.7,31.3-3.6,45.8,1c0,0,0,0,0.1,0c8.5,4.2,18.5,9.1,27.9,16.9
				c13.3,13.6,20.4,32,27.1,49.9c9.3,24.7,18.6,49.3,27.9,73.9c0,0.1,0,0.1,0.1,0.2c0,0,0,0,0,0.1s0,0.1,0.1,0.2
				c0.1,0.3,0.2,0.5,0.3,0.8s0.2,0.6,0.3,0.9C712.6,607.3,689.6,659.7,689.6,659.7z"/>
			<path class="st5" d="M609,493.4c-3.4,2.6-6.6,5.6-9.5,8.7c-11.8,12.6-20.3,27.9-25.1,44.5c-6.5,22.5-8,46.5-5.4,70.4
				c-0.8,0.4-1.6,0.8-2.4,1.2c-17.2,8.4-36.2,14.6-55.5,14.4c-21.4-0.2-41.8-9.9-55.5-26.2c-10.8-12.8-17.6-28.2-22.6-44
				c-5.3-16.6-9.4-33.4-15.9-49.6c-4.2-10.3-8.4-21.9-17.5-29.2c-4.7-3.7-10.5-5-15.1-8.7c-4.9-3.9-8.5-9.4-10.2-15.4
				c-0.8-2.6-1.2-5.3-1.4-8l0,0c-0.9-10.7,2-21.9,5.5-31.8l0,0l-17.9-12.1c-4.9-3.3-7-10.4-4.1-15.5c1.7-3.1,4.7-5.1,7.9-5.7
				c3-0.5,6.2,0,8.8,2l37,26.6c0,0,2.8-9.2,11.6-6.4c8.2,2.7,37.2,14.1,36.2,49.3c-0.2,5.3,1.3,10.7,4.1,15.2l34.7,57.5
				c10.4,17.2,33.4,21.7,49.5,9.7l60.8-45.4L609,493.4z"/>
			<path class="st10" d="M409.9,415.1c0,0-5.8,14.1,14.1,23.4"/>
			<path class="st10" d="M375,430.5c0,0-2,17,20.6,23.4c8,2.2,14.5-7,9.6-13.7c-0.1-0.1-0.2-0.2-0.2-0.3"/>
			<path class="st10" d="M399.6,452.4c0,0,0.2,0.6,0.4,1.5c0.7,3,1,9.6-7.4,10.7c-11.7,1.5-19-11.3-19.9-13"/>
			<path class="st10" d="M372.7,451.6c0-0.1-0.1-0.1-0.1-0.1"/>
			<line class="st10" x1="378.2" y1="419.8" x2="391.3" y2="428.7"/>
		</g>
		<path class="st9" d="M620.4,509.5l-41,101.4l-10.5,4.9l-17.6,8.2c14.1-57.6-5.2-84.4-5.2-84.4l50.9-38c0.8,0.3,1.5,0.5,2.3,0.8
			C609.7,505.8,620.4,509.5,620.4,509.5z"/>
		<path class="st2" d="M641.8,731.2c-17.8,4.4-3.5,1.1-21.4,4.9"/>
		<path class="st2" d="M815.7,728.8c-1.9-5.1-3.8-10.1-5.7-15.2l-0.2-0.5c-21.3-56.7-42.7-113.3-64.1-169.9
			c-6.7-17.8-13.8-36.2-27.1-49.9c-27.8-28.4-76.8-25.7-108.5-1.5l-0.2,0.2l-0.2,0.1c-3.6,2.8-7,5.9-10.1,9.2
			c-11.8,12.6-20.3,27.9-25.1,44.5c-8.2,28.3-8.5,58.9-2.5,88.8c1.2,6.1,2.7,12.1,4.4,18c8.8,30.4,24,59.3,44.1,83.6
			c-15.9,3.4-31.9,6.7-47.9,9.8c-86.3,16.8-173,31.9-259.8,45.5c-52.3,8.2-107.7,16.9-160.1,23.9l-20,2.5c-4.5,0.5-8.9-0.9-12.1-4
			l0,0l-32.7-32.1c-8.3-7.9-21.3-8.3-30-0.9l-7.7,7.9c23.1,24.4,38.2,42.2,61.3,66.6c3.4,3.6,6.8,7.2,11.3,9.1c4.5,1.9,9.6,2,14.5,2
			c8.1,0,16.2,0,24.4,0h4.3c24.2,0,48.5,0,72.7,0c163.6,0,327.3,0.1,490.9,0.1c20.1,0,40.9-0.1,59.3-8.2c8.9-3.9,16.9-9.7,23.5-16.8
			"/>
		<path class="st2" d="M650,600.8l171.2,254.1c4.8,7.2,12.9,11.5,21.6,11.5h74.5c6.1,0,11-4.9,11-11l0,0c0-6.1-4.9-11-11-11h-35.1
			c-11.6,0-22.1-7-26.4-17.8L808,708.8"/>
		<path class="st2" d="M312.7,791.4l0.2-0.2l136.6-137.8c19-19.2,47.2-26.1,73-18l53.8,17.2"/>
		<line class="st2" x1="816.2" y1="729" x2="815.7" y2="728.8"/>
		<polyline class="st2" points="516,756.9 498.2,735.1 468.8,765.4 		"/>
		<line class="st2" x1="721.1" y1="496.5" x2="721.1" y2="496.5"/>
		<g>
			<path class="st2" d="M839.4,846.7c4.5-0.2,9,0,13.4,0.4c3.7,0.4,7.5,0.6,10.9,2.3c2.9,1.4,5.9,4.8,5.7,9
				c-0.3,8.1-8.8,8.1-13.5,8.1"/>
			<polyline class="st2" points="841.2,866.4 856,866.4 856.2,866.4 901.5,866.4 			"/>
		</g>
		<g>
			<path class="st2" d="M569,616.2C569,616.2,568.9,616.2,569,616.2c-0.9,0.5-1.6,0.9-2.4,1.3c-5,2.4-10.1,4.7-15.3,6.6
				c-12.9,4.8-26.5,7.9-40.2,7.8c-21.4-0.2-41.8-9.9-55.5-26.2c-10.8-12.8-17.6-28.2-22.6-44c-5.3-16.6-9.4-33.4-15.9-49.6
				c-4.2-10.3-8.4-21.9-17.5-29.2c-4.7-3.7-10.5-5-15.1-8.7c-4.9-3.9-8.5-9.4-10.2-15.4c-0.8-2.6-1.2-5.3-1.4-8l0,0
				c-0.9-10.7,2-21.9,5.5-31.8l0,0l-17.9-12.1c-4.9-3.3-7-10.4-4.1-15.5c1.7-3.1,4.7-5.1,7.9-5.7c3-0.5,6.2,0,8.8,2l37,26.6
				c0,0,2.8-9.2,11.6-6.4c8.2,2.7,37.2,14.1,36.2,49.3c-0.2,5.3,1.3,10.7,4.1,15.2l34.7,57.5c10.4,17.2,33.4,21.7,49.5,9.7l50.9-38
				l9.9-7.4l2.4-1.8l0,0l0.5-0.4l0.2-0.2"/>
			<path class="st2" d="M410,414.3c0,0-5.8,14.1,14.1,23.4"/>
			<path class="st2" d="M375.1,429.7c0,0-2,17,20.6,23.4c8,2.2,14.5-7,9.6-13.7c-0.1-0.1-0.2-0.2-0.2-0.3"/>
			<path class="st2" d="M372.7,450.7c0,0,7.5,14.8,20,13.1c11-1.5,7-12.2,7-12.2"/>
			<line class="st2" x1="378.2" y1="419" x2="391.4" y2="427.9"/>
		</g>
		<g>
			<path class="st2" d="M805,700.6c25.3-7.9,43.2-23.7,50.8-49.4c7.3-24.7,2.5-52.7-20.5-67.2c-11.5-7.1-25.1-12.7-32.2-24.9
				c-9.7-16.7-3.2-37.1-6.5-55.1c-3.5-18.8-16.1-35.4-31.2-46.5c-11.1-8.2-24.3-13.6-38-15.7c-10.1-1.5-19.4,1-26.3-8
				c-11-14.2-11.1-37.4-11.2-54.5c-0.1-13.1-3.2-26.2-9.9-37.5c-0.1-0.1-0.1-0.2-0.2-0.3c-5.4-9-12.9-16.8-22-22.1
				c-17.1-9.8-40.9-10.8-58-0.6c-2.4,1.4-4.8,3.1-6.9,5c-15.9,13.6-23.5,36.5-23.1,56.9"/>
			<path class="st2" d="M602,355.8c-0.9,6-4.5,11.6-11,13.2c-7.3,1.9-11.2,9-13.3,16.2c-3,10.5-2.1,21.7,2.2,31.8
				c4,9.4,11.1,20.2,23.2,22c22.1,3.1,33.1-6.2,33.1-6.2"/>
			<circle cx="620.4" cy="384.1" r="3.8"/>
			<circle cx="587" cy="381.6" r="3.8"/>
			<path class="st2" d="M602,355.8c-0.8,3.4-0.8,7.3,0.4,10.9c0.2,0.6,0.4,1.1,0.7,1.7c2.6,6.2,8.8,11.1,19.6,10.5
				c23.6-1.3,32.1-2.8,30.1,8.1c-0.5,2.8-1.6,6.5-3.4,11.2c-2.6,6.9-4.4,18.7-1.7,31.6v0.1c3.1,15.1,20.9,38.9,45.5,47.4"/>
			<g>
				<path class="st2" d="M604.1,385c0,0-4,14.6-3.6,16.7s5.5,0.5,5.5,0.5"/>
				<path class="st2" d="M606.8,415.6c7.6,4.1,16.5,1.5,19.9-5.4"/>
				
					<ellipse transform="matrix(0.6864 -0.7272 0.7272 0.6864 -85.078 576.7064)" class="st11" cx="626.2" cy="387" rx="17.3" ry="17.7"/>
				
					<ellipse transform="matrix(0.6864 -0.7272 0.7272 0.6864 -96.0441 543.2718)" class="st11" cx="581.9" cy="383" rx="17.3" ry="17.7"/>
				<g>
					<path class="st5" d="M581.6,370.8c0.4,0,0.8,0,1.1,0.1c6.7,0.6,11.8,6.6,11.4,13.3c-0.4,6.3-5.5,11-11.8,11
						c-0.4,0-0.8,0-1.1-0.1c-6.7-0.6-11.8-6.6-11.4-13.3C570.2,375.6,575.3,370.8,581.6,370.8 M581.6,368.3
						c-7.5,0-13.8,5.7-14.3,13.4c-0.6,8.1,5.6,15.3,13.7,16c0.5,0,0.9,0.1,1.4,0.1c7.5,0,13.8-5.7,14.3-13.4
						c0.6-8.1-5.6-15.3-13.7-16C582.5,368.3,582,368.3,581.6,368.3L581.6,368.3z"/>
				</g>
				<line class="st2" x1="608.7" y1="385.4" x2="599.4" y2="384.6"/>
				<g>
					<path class="st5" d="M625.8,374.5c0.4,0,0.8,0,1.2,0.1c6.9,0.6,12.2,6.8,11.7,13.7c-0.4,6.5-5.7,11.3-12.1,11.3
						c-0.4,0-0.8,0-1.2-0.1c-6.9-0.6-12.2-6.8-11.7-13.7C614.1,379.4,619.4,374.5,625.8,374.5 M625.8,371.9
						c-7.7,0-14.2,5.9-14.7,13.7c-0.6,8.3,5.7,15.6,14.1,16.4c0.5,0,0.9,0.1,1.4,0.1c7.7,0,14.2-5.9,14.7-13.7
						c0.6-8.3-5.7-15.6-14.1-16.4C626.8,372,626.3,371.9,625.8,371.9L625.8,371.9z"/>
				</g>
				
					<ellipse transform="matrix(0.6864 -0.7272 0.7272 0.6864 -96.0441 543.2718)" class="st1" cx="581.9" cy="383" rx="14.8" ry="15.2"/>
				
					<ellipse transform="matrix(0.6864 -0.7272 0.7272 0.6864 -85.0772 576.7207)" class="st1" cx="626.2" cy="387" rx="14.9" ry="15.3"/>
			</g>
			<polyline class="st2" points="620.4,486.3 615.3,464 609.6,439.9 			"/>
		</g>
		<line class="st2" x1="950" y1="866.4" x2="62.7" y2="866.4"/>
	</g>
</g>
</svg>
